<svg xmlns="http://www.w3.org/2000/svg" viewBox="0 0 95 70" width="1.3571428571428572rem" height="1rem" class="brandhub-icon"><path d="M61 10.9H34.7v26.3H61V10.9zm22.9 0H66.6v4.3H84v-4.3zm0 10.6H66.6v4.3H84v-4.3zm0 10.5H66.6v4.3H84V32zm0 10.6H34.7v4.3h49.2v-4.3zm-56.2 0H11.4v4.3h16.4v-4.3zm0-11H11.4v4.3h16.4v-4.3z" fill="currentColor"></path><path d="M23.8.2v20.9H.5v35.6C.5 63.2 6.3 70 14 70h68.7c7.1 0 12.2-6.8 12.2-13.2V.2H23.8zm-18 56.5V26.3l18-.1v30.5c0 3.4-2.6 7.8-9.6 7.8-4.3.1-8.4-3.7-8.4-7.8zm76.9 7.8H25.8c.5-.1 3.3-2.4 3.3-7.8V5.8h60v51c0 4.7-2.8 7.7-6.4 7.7z" fill="currentColor"></path></svg>